<svg xmlns="http://www.w3.org/2000/svg" width="24" height="24" viewBox="0 0 24 24">
	<path fill="#1877F2" d="M12,0C5.373,0,0,5.373,0,12c0,6.016,4.432,10.984,10.206,11.852V15.18H7.237v-3.154h2.969V9.927c0-3.475,1.693-5,4.581-5c1.383,0,2.115,0.103,2.461,0.149v2.753h-1.97c-1.226,0-1.654,1.163-1.654,2.473v1.724h3.593L16.73,15.18h-3.106v8.697C19.481,23.083,24,18.075,24,12C24,5.373,18.627,0,12,0z"/>
	<path fill="#FFFFFF" d="M16.73,15.18l0.485-3.154h-3.593V10.302c0-1.31,0.428-2.473,1.654-2.473h1.97V5.076C16.895,5.03,16.163,4.927,14.78,4.927c-2.888,0-4.581,1.525-4.581,5v2.098H7.237v3.154h2.969v8.672C10.812,23.95,11.397,24,12,24c0.553,0,1.093-0.043,1.624-0.124v-8.697H16.73z"/>
</svg>
